<svg width="71" height="53" viewBox="0 0 71 53" fill="none" xmlns="http://www.w3.org/2000/svg">
<path d="M54.5735 0H15.8439C7.09356 0 0 7.09356 0 15.8439V36.9691C0 45.7195 7.09356 52.8131 15.8439 52.8131H54.5735C63.3239 52.8131 70.4174 45.7195 70.4174 36.9691V15.8439C70.4174 7.09356 63.3239 0 54.5735 0Z" fill="#FC0202"/>
<path d="M13.966 37C13.966 36.538 13.977 35.911 13.999 35.119C14.021 34.327 14.043 33.447 14.065 32.479C14.109 31.511 14.131 30.532 14.131 29.542C14.153 28.53 14.175 27.584 14.197 26.704C14.219 25.824 14.23 25.065 14.23 24.427C14.23 23.789 14.219 23.074 14.197 22.282C14.197 21.468 14.186 20.621 14.164 19.741C14.164 18.861 14.164 18.025 14.164 17.233C14.164 16.419 14.153 15.704 14.131 15.088C14.131 14.472 14.12 14.01 14.098 13.702L18.289 13.636C18.267 14.076 18.234 14.648 18.19 15.352C18.168 16.056 18.146 16.881 18.124 17.827C18.102 18.751 18.08 19.763 18.058 20.863C18.036 21.963 18.025 23.129 18.025 24.361C18.025 25.615 18.025 26.891 18.025 28.189C18.047 29.487 18.058 30.719 18.058 31.885C18.08 33.029 18.102 34.052 18.124 34.954C18.146 35.834 18.157 36.516 18.157 37H13.966ZM7.729 27.958L16.639 27.727V31.027L7.729 30.862V27.958ZM5.914 36.934C5.936 36.45 5.958 35.801 5.98 34.987C6.002 34.151 6.013 33.216 6.013 32.182C6.035 31.126 6.046 30.015 6.046 28.849C6.068 27.683 6.079 26.517 6.079 25.351C6.079 24.163 6.057 22.986 6.013 21.82C5.991 20.632 5.969 19.521 5.947 18.487C5.925 17.453 5.892 16.551 5.848 15.781C5.826 15.011 5.815 14.45 5.815 14.098L9.973 13.966C9.973 14.252 9.962 14.736 9.94 15.418C9.94 16.078 9.929 16.837 9.907 17.695C9.907 18.553 9.896 19.455 9.874 20.401C9.874 21.325 9.863 22.227 9.841 23.107C9.841 23.965 9.841 24.724 9.841 25.384C9.841 25.956 9.841 26.671 9.841 27.529C9.863 28.365 9.874 29.267 9.874 30.235C9.896 31.203 9.907 32.138 9.907 33.04C9.929 33.92 9.94 34.712 9.94 35.416C9.962 36.098 9.973 36.593 9.973 36.901L5.914 36.934ZM30.5743 37.165C30.3983 35.977 30.2113 34.734 30.0133 33.436C29.8373 32.138 29.6503 30.829 29.4523 29.509C29.2543 28.189 29.0453 26.88 28.8253 25.582C28.6493 24.658 28.4843 23.756 28.3303 22.876C28.1983 21.974 28.0663 21.116 27.9343 20.302C27.8243 19.488 27.7033 18.707 27.5713 17.959C27.4613 17.211 27.3513 16.518 27.2413 15.88L25.0303 13.933L30.1783 13.735C30.3323 14.593 30.4863 15.484 30.6403 16.408C30.7943 17.31 30.9483 18.245 31.1023 19.213C31.2783 20.159 31.4543 21.127 31.6303 22.117C31.8283 23.107 32.0153 24.086 32.1913 25.054C32.4773 26.528 32.7633 27.98 33.0493 29.41C33.3353 30.818 33.6103 32.171 33.8743 33.469C34.1603 34.745 34.4243 35.922 34.6663 37L30.5743 37.165ZM23.8423 32.611V29.377L31.1023 29.509V32.38L23.8423 32.611ZM24.4363 36.802L20.5423 36.769C20.7623 35.735 21.0043 34.602 21.2683 33.37C21.5323 32.138 21.7963 30.84 22.0603 29.476C22.3463 28.09 22.6213 26.682 22.8853 25.252C23.1493 23.932 23.4023 22.623 23.6443 21.325C23.9083 20.027 24.1503 18.751 24.3703 17.497C24.6123 16.243 24.8323 15.055 25.0303 13.933L30.1783 13.735L27.8353 16.144C27.6813 16.936 27.5163 17.827 27.3403 18.817C27.1643 19.807 26.9883 20.863 26.8123 21.985C26.6363 23.085 26.4493 24.24 26.2513 25.45C26.0093 26.726 25.7893 28.024 25.5913 29.344C25.3933 30.642 25.1953 31.918 24.9973 33.172C24.8213 34.426 24.6343 35.636 24.4363 36.802ZM45.0324 37.726C45.0324 37.33 45.0434 36.802 45.0654 36.142C45.0874 35.482 45.0984 34.745 45.0984 33.931C45.1204 33.117 45.1424 32.27 45.1644 31.39C45.2084 30.488 45.2304 29.608 45.2304 28.75C45.2524 27.892 45.2634 27.089 45.2634 26.341C45.2854 25.593 45.2964 24.955 45.2964 24.427C45.2964 23.789 45.2854 23.085 45.2634 22.315C45.2634 21.523 45.2524 20.709 45.2304 19.873C45.2304 19.037 45.2304 18.245 45.2304 17.497C45.2304 16.727 45.2194 16.045 45.1974 15.451C45.1974 14.857 45.1864 14.395 45.1644 14.065L49.3554 13.636C49.3334 14.076 49.3004 14.648 49.2564 15.352C49.2344 16.056 49.2124 16.881 49.1904 17.827C49.1684 18.751 49.1464 19.763 49.1244 20.863C49.1024 21.963 49.0914 23.129 49.0914 24.361C49.0914 25.373 49.0914 26.407 49.0914 27.463C49.0914 28.519 49.1024 29.553 49.1244 30.565C49.1464 31.555 49.1574 32.49 49.1574 33.37C49.1794 34.25 49.1904 35.031 49.1904 35.713C49.2124 36.395 49.2234 36.923 49.2234 37.297L45.0324 37.726ZM38.7954 30.235V26.935L47.7054 27.133V30.07L38.7954 30.235ZM36.9804 37.264C37.0024 36.78 37.0244 36.109 37.0464 35.251C37.0684 34.393 37.0794 33.425 37.0794 32.347C37.1014 31.247 37.1124 30.103 37.1124 28.915C37.1344 27.705 37.1454 26.517 37.1454 25.351C37.1454 24.163 37.1234 22.931 37.0794 21.655C37.0574 20.379 37.0354 19.169 37.0134 18.025C36.9914 16.859 36.9584 15.858 36.9144 15.022C36.8924 14.164 36.8814 13.548 36.8814 13.174L41.0394 12.613C41.0394 12.921 41.0284 13.449 41.0064 14.197C41.0064 14.945 40.9954 15.814 40.9734 16.804C40.9734 17.794 40.9624 18.828 40.9404 19.906C40.9404 20.984 40.9294 22.007 40.9074 22.975C40.9074 23.921 40.9074 24.724 40.9074 25.384C40.9074 25.956 40.9074 26.671 40.9074 27.529C40.9294 28.365 40.9404 29.267 40.9404 30.235C40.9624 31.203 40.9734 32.138 40.9734 33.04C40.9954 33.92 41.0064 34.712 41.0064 35.416C41.0284 36.098 41.0394 36.593 41.0394 36.901L36.9804 37.264ZM51.5427 37.231C51.7627 36.197 52.0047 35.031 52.2687 33.733C52.5327 32.413 52.7967 31.027 53.0607 29.575C53.3467 28.123 53.6327 26.682 53.9187 25.252C54.1607 23.932 54.4027 22.645 54.6447 21.391C54.9087 20.115 55.1507 18.872 55.3707 17.662C55.6127 16.43 55.8327 15.264 56.0307 14.164L61.3107 13.735C61.5087 14.879 61.7067 16.078 61.9047 17.332C62.1247 18.564 62.3557 19.829 62.5977 21.127C62.8397 22.425 63.0817 23.734 63.3237 25.054C63.5877 26.528 63.8517 27.958 64.1157 29.344C64.3797 30.73 64.6437 32.039 64.9077 33.271C65.1937 34.503 65.4577 35.669 65.6997 36.769L61.6077 36.835C61.4317 35.625 61.2557 34.393 61.0797 33.139C60.9037 31.885 60.7167 30.631 60.5187 29.377C60.3427 28.101 60.1447 26.836 59.9247 25.582C59.8147 24.9 59.7047 24.229 59.5947 23.569C59.4847 22.887 59.3637 22.227 59.2317 21.589C59.1217 20.929 59.0117 20.291 58.9017 19.675C58.7917 19.059 58.6927 18.465 58.6047 17.893C58.4727 18.619 58.3297 19.4 58.1757 20.236C58.0217 21.072 57.8677 21.93 57.7137 22.81C57.5597 23.668 57.4057 24.548 57.2517 25.45C57.0317 26.726 56.8227 28.035 56.6247 29.377C56.4267 30.719 56.2287 32.05 56.0307 33.37C55.8327 34.668 55.6347 35.9 55.4367 37.066L51.5427 37.231ZM54.9087 32.512V29.641L62.1687 29.377V32.611L54.9087 32.512Z" fill="white"/>
</svg>
